<svg xmlns="http://www.w3.org/2000/svg" viewBox="0 20.950000762939453 61.45000076293945 33.79999923706055" data-asc="0.89" width="61.45000076293945" height="33.79999923706055"><defs/><g><g fill="#000000"><g transform="translate(0, 0)"><path d="M1.95 46.60Q1.15 46.60 0.55 46.45Q0 46.30 0 46.05Q0 45.65 0.80 45.60Q1.55 45.55 1.80 45.45Q2.25 45.35 2.85 45.30Q3.40 45.20 3.75 45.15Q6.15 44.45 6.15 43Q6.15 42 5.10 40.45Q4.45 39.50 4.45 38.35Q4.45 36.95 5.33 35.60Q6.20 34.25 7.53 33.23Q8.85 32.20 10.20 31.85Q10.80 31.70 11.45 31.70Q12.50 31.70 12.95 32.20Q13.25 32.50 13.25 33.50Q13.25 34.25 13 35.02Q12.75 35.80 12.30 36.30Q12.05 36.55 11.90 36.55Q11.65 36.55 11.65 35.85L11.70 34.85Q11.75 34.45 11.78 34.15Q11.80 33.85 11.80 33.65Q11.80 32.80 11.45 32.65Q11.05 32.55 10.90 32.55Q9.85 32.55 8.65 33.50Q7.45 34.45 6.70 35.70Q6.40 36.15 6.40 36.80Q6.40 37.60 6.83 38.67Q7.25 39.75 7.45 40.25Q7.95 41.35 8.22 42.15Q8.50 42.95 8.50 43.55Q8.50 43.85 8.45 44Q8.70 43.90 9.65 43.70Q10.50 43.50 11.10 43.50Q11.45 43.50 11.45 43.65Q11.45 43.70 11.15 44Q11 44.15 10.22 44.48Q9.45 44.80 8.43 45.15Q7.40 45.50 6.40 45.80Q5.40 46.10 4.70 46.25Q3.50 46.60 1.95 46.60ZM13.10 45.30Q12.20 45.30 12.20 44.60Q12.20 44.15 12.53 43.45Q12.85 42.75 13.20 42.10Q14.15 40.40 14.95 38.80Q15.75 37.20 16.50 35.40Q16.85 34.60 17.55 34.60Q18.30 34.60 18 35.50Q17.70 36.25 17.40 36.85Q16 39.70 16 40.70Q16 41.15 16.30 41.25Q17 40.70 17.35 40.42Q17.70 40.15 17.75 40.10Q18.45 39.55 19.33 38.83Q20.20 38.10 21.25 37.15Q22.90 35.65 24 35.65Q25.35 35.65 25.15 38.10Q25.10 39.05 25.15 39.95Q25.20 40.15 25.20 40.52Q25.20 40.90 25.20 41.40Q25.20 41.90 25.80 41.90Q26.50 41.90 27.10 41.50L28.20 40.75L29.30 40.05Q29.40 40 29.65 40Q29.95 40 29.65 40.45Q26.50 44.35 24.45 44.35Q24.05 44.35 23.65 44.20Q23.30 44.05 23.15 43.33Q23 42.60 22.98 41.75Q22.95 40.90 22.95 40.45L23 38.80Q23 37.75 22.45 37.75Q21.15 37.75 16.05 43.10Q15.65 43.60 14.80 44.45Q13.95 45.30 13.10 45.30ZM30.25 49.15Q30 49.15 30 48.70Q30 48.60 30.03 48.42Q30.05 48.25 30.10 48.05L32.25 42.65L34.80 36.35Q34.20 36.30 33.05 36.38Q31.90 36.45 31.10 36.60Q30.80 36.65 30.63 36.67Q30.45 36.70 30.35 36.70Q29.95 36.70 29.80 36.35Q29.85 36.05 30.35 35.80Q30.60 35.70 30.95 35.63Q31.30 35.55 31.80 35.45Q32.35 35.35 32.77 35.30Q33.20 35.25 33.40 35.20Q33.65 35.15 33.90 35.10Q34.15 35.05 34.50 35Q34.80 34.95 35.15 34.90Q35.50 34.85 35.90 34.75Q36.30 34.20 37.10 32.80Q37.90 31.40 39.15 29.10Q40.15 27.25 40.78 26.18Q41.40 25.10 41.65 24.75Q42.10 24.15 42.70 24.15Q43 24.15 43 24.40Q43 24.45 42.75 25.05Q42.45 25.55 41.75 26.90Q41.05 28.25 40.25 29.85Q39.45 31.45 38.80 32.85Q38.15 34.25 37.90 34.90Q38.15 34.85 38.48 34.85Q38.80 34.85 39.30 34.85Q39.85 34.85 40.33 34.88Q40.80 34.90 41.15 34.95Q41.85 35.10 41.85 35.35Q41.85 35.45 41.40 35.70Q41.15 35.80 40.45 35.90Q39.75 36 38.60 36.10Q38.30 36.10 37.95 36.13Q37.60 36.15 37.20 36.20Q35.70 38.65 33.10 44.35Q32.15 46.25 31.65 47.30Q31.15 48.35 31.05 48.55Q30.60 49.15 30.25 49.15ZM40 47.80Q39.45 47.80 39.08 47.45Q38.70 47.10 38.75 46.60Q38.85 44.55 39.53 42.65Q40.20 40.75 41.50 38.10Q41.65 37.75 41.78 37.48Q41.90 37.20 42 37Q43.10 34.65 44.25 32.50Q45.40 30.35 46.55 28.30L47.25 27.05Q48.45 24.90 49.35 23.57Q50.25 22.25 51.15 21.65Q52.30 20.95 52.55 20.95Q52.95 20.95 53.35 21.65Q53.60 22.15 52.35 24.10Q51.70 25.10 50.73 26.60Q49.75 28.10 48.40 30Q48.15 30.35 47.58 31.23Q47 32.10 46.05 33.50Q45.10 34.90 44.40 36.02Q43.70 37.15 43.25 38Q42.35 39.65 41.55 41.52Q40.75 43.40 40.75 44.45Q40.75 45.40 41.50 45.40Q42.70 45.40 45.35 43.35Q45.65 43.40 45.65 43.65Q45.65 43.85 45.15 44.35Q44.70 44.80 44.03 45.33Q43.35 45.85 42.45 46.55L41.65 47.15Q40.85 47.80 40 47.80ZM47.85 54.75Q46.75 54.75 46.05 53.75Q45.35 52.75 45.35 51.40Q45.35 50.65 45.60 50.05Q46.00 49.20 46.25 49.20Q46.45 49.20 46.45 49.50Q46.45 49.75 46.30 50.15Q46.25 50.30 46.23 50.42Q46.20 50.55 46.20 50.65Q46.20 51.55 46.73 52.50Q47.25 53.45 48.05 53.45L48.45 53.35Q49.65 53.05 50.73 52.02Q51.80 51 52.85 49.50Q54.25 47.45 55.35 45.08Q56.45 42.70 57.25 40.35Q58.05 38 58.45 36.10Q58.45 35.85 58.25 35.85Q57.90 35.85 57.15 36.65Q56.55 37.30 55.60 38.45Q54.65 39.60 53.25 41.20L52.45 42.15Q51.65 43.10 50.83 43.52Q50.00 43.95 49.30 43.95Q48.70 43.95 48.30 43.70Q47.80 43.35 47.80 42.45Q47.80 41 49.15 37.65L49.80 36.05Q50.30 34.90 50.68 33.95Q51.05 33 51.40 32.20Q51.75 31.55 52.20 31.55Q52.75 31.55 52.40 32.20Q50.60 36.30 50.30 38.65Q50.25 38.75 50.25 38.92Q50.25 39.10 50.25 39.30Q50.25 40.40 51.15 40.40Q51.75 40.40 52.85 39.70Q53.95 38.90 55.60 37.17Q57.25 35.45 59.55 32.80Q59.95 32.40 60.30 32Q60.65 31.60 60.95 31.25Q61.15 31.05 61.30 31.05Q61.45 31.05 61.45 31.50Q61.45 31.95 61.30 32.65Q61.15 33.30 61.15 33.45Q60.55 37.10 58.95 41.30Q57.30 45.45 54.78 49Q52.25 52.55 49.15 54.35Q48.50 54.75 47.85 54.75Z"/></g></g></g></svg>