<?xml version="1.0" encoding="UTF-8"?>
<svg xmlns="http://www.w3.org/2000/svg" xmlns:xlink="http://www.w3.org/1999/xlink" width="200px" height="45px" viewBox="0 0 76 17" version="1.1">
<g id="surface1">
<path style=" stroke:none;fill-rule:nonzero;fill:rgb(0%,0%,0%);fill-opacity:1;" d="M 5.460938 17 C 5.066406 17 4.644531 16.972656 4.199219 16.914062 C 3.753906 16.855469 3.382812 16.792969 3.085938 16.722656 C 2.476562 16.609375 2.039062 16.511719 1.765625 16.4375 C 1.492188 16.363281 1.238281 16.308594 1.007812 16.273438 C 0.796875 15.246094 0.640625 14.402344 0.539062 13.742188 C 0.441406 13.085938 0.390625 12.605469 0.390625 12.304688 C 0.390625 12.207031 0.523438 12.15625 0.785156 12.15625 C 1.082031 12.15625 1.289062 12.234375 1.40625 12.382812 C 1.980469 14.78125 3.351562 15.976562 5.511719 15.976562 C 6.332031 15.976562 7.035156 15.726562 7.609375 15.226562 C 8.1875 14.726562 8.476562 14.019531 8.476562 13.105469 C 8.476562 12.804688 8.414062 12.4375 8.289062 12.003906 C 8.164062 11.570312 7.886719 11.199219 7.460938 10.886719 C 7.132812 10.632812 6.859375 10.445312 6.644531 10.324219 C 6.429688 10.195312 6.21875 10.078125 6 9.96875 C 5.789062 9.863281 5.515625 9.710938 5.1875 9.511719 L 4.199219 8.910156 C 3.6875 8.59375 3.179688 8.230469 2.664062 7.824219 C 2.15625 7.417969 1.730469 6.941406 1.394531 6.390625 C 1.058594 5.84375 0.886719 5.21875 0.886719 4.519531 C 0.886719 3.636719 1.113281 2.867188 1.566406 2.207031 C 2.019531 1.550781 2.609375 1.039062 3.34375 0.675781 C 4.078125 0.308594 4.875 0.121094 5.734375 0.121094 C 6.09375 0.121094 6.433594 0.144531 6.753906 0.183594 C 7.078125 0.226562 7.347656 0.273438 7.558594 0.320312 C 8.054688 0.4375 8.40625 0.53125 8.613281 0.597656 C 8.820312 0.664062 9.101562 0.738281 9.464844 0.824219 C 9.664062 1.6875 9.761719 2.878906 9.761719 4.390625 C 9.761719 4.507812 9.679688 4.566406 9.515625 4.566406 C 9.101562 4.566406 8.886719 4.480469 8.871094 4.316406 C 8.785156 3.816406 8.605469 3.328125 8.324219 2.84375 C 8.042969 2.363281 7.667969 1.960938 7.191406 1.636719 C 6.710938 1.308594 6.144531 1.144531 5.484375 1.144531 C 4.808594 1.144531 4.28125 1.273438 3.898438 1.535156 C 3.523438 1.792969 3.253906 2.117188 3.101562 2.503906 C 2.941406 2.898438 2.863281 3.308594 2.863281 3.742188 C 2.863281 4.160156 2.960938 4.574219 3.160156 4.988281 C 3.355469 5.40625 3.644531 5.753906 4.027344 6.039062 C 4.535156 6.421875 5.050781 6.78125 5.570312 7.113281 C 6.089844 7.445312 6.628906 7.789062 7.191406 8.140625 C 7.71875 8.46875 8.242188 8.839844 8.769531 9.25 C 9.300781 9.65625 9.742188 10.117188 10.097656 10.632812 C 10.449219 11.148438 10.621094 11.746094 10.621094 12.429688 C 10.621094 13.3125 10.386719 14.097656 9.910156 14.792969 C 9.429688 15.480469 8.800781 16.019531 8.015625 16.410156 C 7.234375 16.804688 6.378906 17 5.460938 17 Z M 26.097656 16.878906 C 25.835938 16.878906 25.5625 16.683594 25.285156 16.300781 L 15.691406 2.570312 L 15.691406 13.230469 C 15.691406 14.363281 15.75 15.136719 15.867188 15.554688 C 15.898438 15.617188 16.042969 15.695312 16.296875 15.789062 C 16.554688 15.878906 16.832031 15.957031 17.128906 16.011719 C 17.425781 16.070312 17.621094 16.101562 17.71875 16.101562 C 17.769531 16.101562 17.800781 16.199219 17.804688 16.402344 C 17.8125 16.597656 17.800781 16.742188 17.769531 16.824219 C 16.945312 16.792969 16.296875 16.761719 15.828125 16.738281 C 15.359375 16.710938 15.058594 16.699219 14.925781 16.699219 L 12.085938 16.824219 C 12.035156 16.773438 12.011719 16.652344 12.011719 16.453125 C 12.011719 16.21875 12.035156 16.101562 12.085938 16.101562 C 12.246094 16.101562 12.476562 16.070312 12.773438 16.011719 C 13.070312 15.957031 13.351562 15.878906 13.613281 15.789062 C 13.878906 15.695312 14.027344 15.601562 14.058594 15.503906 C 14.226562 15.101562 14.308594 14.320312 14.308594 13.15625 L 14.308594 3.34375 C 14.308594 2.496094 14.25 1.871094 14.136719 1.472656 C 14.101562 1.375 13.957031 1.285156 13.699219 1.210938 C 13.449219 1.136719 13.171875 1.074219 12.875 1.023438 C 12.578125 0.972656 12.347656 0.945312 12.183594 0.945312 C 12.117188 0.945312 12.085938 0.839844 12.085938 0.625 C 12.085938 0.421875 12.117188 0.289062 12.183594 0.226562 C 12.828125 0.242188 13.359375 0.253906 13.777344 0.261719 C 14.199219 0.265625 14.507812 0.269531 14.703125 0.269531 C 15.132812 0.269531 15.511719 0.265625 15.84375 0.261719 C 16.167969 0.253906 16.449219 0.242188 16.683594 0.226562 C 16.996094 0.789062 17.847656 2.09375 19.238281 4.132812 C 20.632812 6.167969 22.574219 8.945312 25.0625 12.453125 C 25.113281 12.171875 25.136719 11.832031 25.136719 11.433594 L 25.136719 3.671875 C 25.136719 2.621094 25.078125 1.886719 24.964844 1.472656 C 24.929688 1.375 24.78125 1.28125 24.519531 1.195312 C 24.253906 1.113281 23.976562 1.042969 23.679688 0.988281 C 23.382812 0.929688 23.160156 0.898438 23.011719 0.898438 C 22.941406 0.898438 22.910156 0.800781 22.910156 0.597656 C 22.910156 0.414062 22.941406 0.289062 23.011719 0.226562 C 23.160156 0.226562 23.40625 0.238281 23.75 0.261719 C 24.097656 0.285156 24.472656 0.308594 24.875 0.335938 C 25.277344 0.359375 25.628906 0.375 25.925781 0.375 C 26.355469 0.375 26.898438 0.347656 27.554688 0.296875 C 28.199219 0.25 28.582031 0.226562 28.695312 0.226562 C 28.730469 0.359375 28.746094 0.480469 28.746094 0.597656 C 28.746094 0.800781 28.710938 0.898438 28.644531 0.898438 C 28.546875 0.898438 28.339844 0.933594 28.027344 0.996094 C 27.714844 1.066406 27.421875 1.140625 27.152344 1.222656 C 26.878906 1.304688 26.722656 1.386719 26.691406 1.472656 C 26.625 1.738281 26.578125 2.0625 26.542969 2.445312 C 26.511719 2.828125 26.492188 3.277344 26.492188 3.792969 L 26.492188 13.277344 C 26.492188 14.3125 26.519531 15.476562 26.570312 16.773438 C 26.5 16.84375 26.34375 16.878906 26.097656 16.878906 Z M 34.699219 16.824219 C 34.636719 16.757812 34.601562 16.632812 34.601562 16.453125 C 34.601562 16.21875 34.636719 16.101562 34.699219 16.101562 C 34.847656 16.101562 35.046875 16.078125 35.296875 16.039062 C 35.542969 15.996094 35.773438 15.933594 35.984375 15.851562 C 36.203125 15.769531 36.324219 15.683594 36.355469 15.597656 C 36.421875 15.367188 36.46875 15.070312 36.492188 14.703125 C 36.519531 14.335938 36.53125 13.894531 36.53125 13.378906 L 36.53125 4.339844 C 36.53125 2.894531 36.457031 2.039062 36.308594 1.769531 C 36.195312 1.519531 35.304688 1.394531 33.636719 1.394531 C 33.011719 1.394531 32.527344 1.449219 32.179688 1.558594 C 31.835938 1.667969 31.570312 1.878906 31.386719 2.195312 C 31.207031 2.511719 31.035156 2.984375 30.871094 3.621094 C 30.839844 3.703125 30.753906 3.742188 30.625 3.742188 C 30.34375 3.742188 30.144531 3.683594 30.027344 3.570312 L 30.496094 0 C 30.863281 0.0820312 31.183594 0.148438 31.464844 0.199219 C 31.746094 0.246094 31.992188 0.269531 32.203125 0.269531 C 33.390625 0.269531 34.4375 0.289062 35.34375 0.320312 C 36.25 0.355469 37.007812 0.375 37.621094 0.375 C 38.886719 0.375 39.976562 0.355469 40.890625 0.320312 C 41.804688 0.289062 42.527344 0.269531 43.058594 0.269531 C 43.269531 0.269531 43.515625 0.246094 43.796875 0.199219 C 44.078125 0.148438 44.398438 0.0820312 44.761719 0 L 45.230469 3.570312 C 45.113281 3.683594 44.917969 3.742188 44.636719 3.742188 C 44.503906 3.742188 44.421875 3.703125 44.386719 3.621094 C 44.238281 2.984375 44.070312 2.511719 43.882812 2.195312 C 43.695312 1.878906 43.425781 1.667969 43.082031 1.558594 C 42.734375 1.449219 42.25 1.394531 41.625 1.394531 C 39.894531 1.394531 38.984375 1.519531 38.902344 1.769531 C 38.753906 2.289062 38.679688 3.121094 38.679688 4.269531 L 38.679688 13.277344 C 38.679688 14.246094 38.753906 15.019531 38.902344 15.597656 C 38.933594 15.667969 39.058594 15.742188 39.277344 15.824219 C 39.488281 15.910156 39.71875 15.976562 39.964844 16.023438 C 40.214844 16.074219 40.386719 16.101562 40.484375 16.101562 C 40.550781 16.101562 40.582031 16.222656 40.582031 16.472656 C 40.582031 16.574219 40.566406 16.691406 40.535156 16.824219 C 39.710938 16.792969 39.0625 16.761719 38.582031 16.738281 C 38.101562 16.710938 37.796875 16.699219 37.664062 16.699219 Z M 58.257812 16.851562 C 57.402344 16.851562 56.066406 16.824219 54.253906 16.773438 C 53.347656 16.742188 52.523438 16.714844 51.78125 16.699219 C 51.039062 16.679688 50.390625 16.679688 49.832031 16.699219 L 46.839844 16.773438 C 46.789062 16.722656 46.761719 16.589844 46.761719 16.375 C 46.761719 16.15625 46.789062 16.050781 46.839844 16.050781 C 47.003906 16.050781 47.203125 16.023438 47.441406 15.976562 C 47.679688 15.925781 47.910156 15.863281 48.132812 15.789062 C 48.359375 15.714844 48.496094 15.625 48.542969 15.527344 C 48.660156 15.34375 48.71875 14.5625 48.71875 13.179688 L 48.71875 3.742188 C 48.71875 2.644531 48.660156 1.886719 48.542969 1.472656 C 48.511719 1.375 48.386719 1.285156 48.171875 1.210938 C 47.957031 1.136719 47.726562 1.074219 47.480469 1.023438 C 47.234375 0.972656 47.039062 0.945312 46.890625 0.945312 C 46.820312 0.945312 46.789062 0.839844 46.789062 0.625 C 46.789062 0.421875 46.820312 0.289062 46.890625 0.226562 C 47.039062 0.226562 47.289062 0.238281 47.636719 0.261719 C 47.992188 0.285156 48.378906 0.308594 48.792969 0.335938 C 49.203125 0.359375 49.558594 0.375 49.855469 0.375 C 50.382812 0.375 50.910156 0.351562 51.433594 0.3125 C 51.960938 0.269531 52.390625 0.242188 52.722656 0.226562 C 52.753906 0.359375 52.773438 0.480469 52.773438 0.597656 C 52.773438 0.828125 52.738281 0.945312 52.671875 0.945312 C 52.574219 0.945312 52.402344 0.976562 52.152344 1.03125 C 51.90625 1.089844 51.671875 1.15625 51.460938 1.230469 C 51.246094 1.308594 51.121094 1.386719 51.089844 1.472656 C 50.941406 2.039062 50.867188 2.8125 50.867188 3.792969 L 50.867188 13.207031 C 50.867188 14.089844 50.941406 14.820312 51.089844 15.398438 C 51.136719 15.566406 51.699219 15.648438 52.773438 15.648438 L 53.957031 15.648438 C 55.472656 15.648438 56.507812 15.507812 57.070312 15.226562 C 57.320312 15.09375 57.597656 14.796875 57.898438 14.339844 C 58.203125 13.882812 58.445312 13.339844 58.628906 12.707031 C 58.664062 12.605469 58.777344 12.558594 58.972656 12.558594 C 59.285156 12.558594 59.492188 12.605469 59.589844 12.707031 C 59.542969 12.839844 59.464844 13.042969 59.359375 13.320312 C 59.25 13.589844 59.148438 13.871094 59.050781 14.152344 C 58.953125 14.433594 58.867188 14.675781 58.800781 14.878906 C 58.703125 15.179688 58.597656 15.519531 58.480469 15.902344 C 58.363281 16.28125 58.289062 16.597656 58.257812 16.851562 Z M 65.03125 16.824219 C 64.964844 16.757812 64.929688 16.640625 64.929688 16.472656 C 64.929688 16.257812 64.964844 16.152344 65.03125 16.152344 C 65.164062 16.152344 65.347656 16.125 65.585938 16.074219 C 65.824219 16.027344 66.046875 15.957031 66.253906 15.863281 C 66.457031 15.773438 66.578125 15.683594 66.613281 15.597656 C 66.679688 15.332031 66.730469 15 66.757812 14.601562 C 66.792969 14.203125 66.808594 13.738281 66.808594 13.207031 L 66.808594 10.082031 C 66.808594 9.851562 66.636719 9.386719 66.292969 8.6875 C 66.109375 8.351562 65.765625 7.710938 65.253906 6.765625 C 64.742188 5.816406 64.058594 4.574219 63.199219 3.042969 C 62.9375 2.542969 62.734375 2.199219 62.597656 2.007812 C 62.457031 1.820312 62.253906 1.632812 61.992188 1.445312 C 61.808594 1.3125 61.535156 1.191406 61.175781 1.074219 C 60.8125 0.957031 60.546875 0.898438 60.386719 0.898438 C 60.316406 0.898438 60.285156 0.808594 60.285156 0.625 C 60.285156 0.421875 60.316406 0.289062 60.386719 0.226562 L 61.71875 0.296875 C 62.03125 0.3125 62.324219 0.332031 62.597656 0.347656 C 62.867188 0.363281 63.121094 0.375 63.351562 0.375 C 63.546875 0.375 64.632812 0.324219 66.613281 0.226562 C 66.644531 0.289062 66.65625 0.417969 66.648438 0.609375 C 66.640625 0.800781 66.613281 0.898438 66.5625 0.898438 C 66.28125 0.898438 65.964844 0.96875 65.609375 1.109375 C 65.253906 1.253906 65.078125 1.464844 65.078125 1.75 C 65.078125 1.914062 65.167969 2.160156 65.351562 2.496094 L 68.121094 7.785156 C 68.21875 7.871094 68.300781 7.855469 68.367188 7.734375 C 70.609375 4.324219 71.730469 2.320312 71.730469 1.722656 C 71.730469 1.539062 71.566406 1.355469 71.234375 1.171875 C 70.902344 0.988281 70.5 0.898438 70.023438 0.898438 C 69.957031 0.898438 69.921875 0.800781 69.921875 0.597656 C 69.921875 0.414062 69.957031 0.289062 70.023438 0.226562 L 72.941406 0.375 C 73.203125 0.390625 73.464844 0.386719 73.730469 0.363281 C 73.992188 0.335938 74.257812 0.3125 74.523438 0.296875 C 75.066406 0.25 75.414062 0.226562 75.5625 0.226562 C 75.59375 0.359375 75.609375 0.480469 75.609375 0.597656 C 75.609375 0.800781 75.574219 0.898438 75.511719 0.898438 C 75.378906 0.898438 75.175781 0.933594 74.894531 0.996094 C 74.613281 1.066406 74.335938 1.15625 74.0625 1.273438 C 73.792969 1.390625 73.601562 1.523438 73.480469 1.671875 C 73.234375 2.070312 72.921875 2.574219 72.546875 3.179688 C 72.167969 3.789062 71.773438 4.441406 71.359375 5.128906 C 70.945312 5.820312 70.558594 6.476562 70.195312 7.101562 C 69.835938 7.726562 69.539062 8.253906 69.304688 8.6875 C 69.074219 9.121094 68.960938 9.386719 68.960938 9.484375 L 68.960938 13.277344 C 68.960938 13.796875 68.976562 14.246094 69.011719 14.628906 C 69.042969 15.007812 69.089844 15.332031 69.160156 15.597656 C 69.191406 15.667969 69.3125 15.746094 69.519531 15.839844 C 69.722656 15.929688 69.941406 16.007812 70.171875 16.0625 C 70.402344 16.121094 70.570312 16.152344 70.667969 16.152344 C 70.730469 16.152344 70.761719 16.257812 70.761719 16.472656 C 70.761719 16.574219 70.75 16.691406 70.71875 16.824219 C 69.890625 16.792969 69.246094 16.761719 68.789062 16.738281 C 68.328125 16.710938 68.046875 16.699219 67.949219 16.699219 Z M 65.03125 16.824219 "/>
</g>
</svg>
