<svg xmlns="http://www.w3.org/2000/svg" viewBox="0 8.84000015258789 314.94000244140625 37.029998779296875" data-asc="0.9052734375" width="314.94000244140625" height="37.029998779296875"><defs/><g><g fill="#000000"><g transform="translate(0, 0)"><path d="M0 45.26L0 9.47L4.86 9.47L23.66 37.57L23.66 9.47L28.20 9.47L28.20 45.26L23.34 45.26L4.54 17.14L4.54 45.26L0 45.26ZM34.72 27.83Q34.72 18.92 39.50 13.88Q44.29 8.84 51.86 8.84Q56.81 8.84 60.79 11.21Q64.77 13.57 66.86 17.81Q68.95 22.05 68.95 27.42Q68.95 32.86 66.75 37.16Q64.55 41.46 60.52 43.66Q56.49 45.87 51.83 45.87Q46.78 45.87 42.80 43.43Q38.82 40.99 36.77 36.77Q34.72 32.54 34.72 27.83M39.60 27.91Q39.60 34.38 43.08 38.10Q46.56 41.82 51.81 41.82Q57.15 41.82 60.61 38.06Q64.06 34.30 64.06 27.39Q64.06 23.02 62.59 19.76Q61.11 16.50 58.26 14.71Q55.42 12.92 51.88 12.92Q46.85 12.92 43.23 16.37Q39.60 19.82 39.60 27.91ZM84.16 45.26L84.16 13.70L72.36 13.70L72.36 9.47L100.73 9.47L100.73 13.70L88.89 13.70L88.89 45.26L84.16 45.26ZM105.66 45.26L105.66 9.47L121.53 9.47Q126.32 9.47 128.81 10.44Q131.30 11.40 132.79 13.84Q134.28 16.28 134.28 19.24Q134.28 23.05 131.81 25.66Q129.35 28.27 124.19 28.98Q126.07 29.88 127.05 30.76Q129.13 32.67 130.98 35.52L137.21 45.26L131.25 45.26L126.51 37.82Q124.44 34.59 123.10 32.89Q121.75 31.18 120.69 30.49Q119.63 29.81 118.53 29.54Q117.72 29.37 115.89 29.37L110.40 29.37L110.40 45.26L105.66 45.26M110.40 25.27L120.58 25.27Q123.83 25.27 125.66 24.60Q127.49 23.93 128.44 22.45Q129.39 20.97 129.39 19.24Q129.39 16.70 127.55 15.06Q125.71 13.43 121.73 13.43L110.40 13.43L110.40 25.27ZM141.80 45.26L141.80 9.47L167.68 9.47L167.68 13.70L146.53 13.70L146.53 24.66L166.33 24.66L166.33 28.86L146.53 28.86L146.53 41.04L168.51 41.04L168.51 45.26L141.80 45.26ZM197.97 41.33L198.61 45.21Q196.75 45.61 195.29 45.61Q192.90 45.61 191.58 44.85Q190.26 44.09 189.72 42.86Q189.18 41.63 189.18 37.67L189.18 22.75L185.96 22.75L185.96 19.34L189.18 19.34L189.18 12.92L193.55 10.28L193.55 19.34L197.97 19.34L197.97 22.75L193.55 22.75L193.55 37.92Q193.55 39.79 193.79 40.33Q194.02 40.87 194.54 41.19Q195.07 41.50 196.04 41.50Q196.78 41.50 197.97 41.33ZM202.22 45.26L202.22 19.34L206.18 19.34L206.18 23.27Q207.69 20.51 208.97 19.63Q210.25 18.75 211.79 18.75Q214.01 18.75 216.31 20.17L214.79 24.24Q213.18 23.29 211.57 23.29Q210.13 23.29 208.98 24.16Q207.84 25.02 207.35 26.56Q206.62 28.91 206.62 31.69L206.62 45.26L202.22 45.26ZM235.84 42.07Q233.40 44.14 231.14 45.00Q228.88 45.85 226.29 45.85Q222.02 45.85 219.73 43.76Q217.43 41.67 217.43 38.43Q217.43 36.52 218.30 34.95Q219.17 33.37 220.57 32.42Q221.97 31.47 223.73 30.98Q225.02 30.64 227.64 30.32Q232.96 29.69 235.47 28.81Q235.50 27.91 235.50 27.66Q235.50 24.98 234.25 23.88Q232.57 22.39 229.25 22.39Q226.15 22.39 224.67 23.47Q223.19 24.56 222.49 27.32L218.19 26.73Q218.77 23.97 220.12 22.28Q221.46 20.58 224.00 19.67Q226.54 18.75 229.88 18.75Q233.20 18.75 235.28 19.53Q237.35 20.31 238.33 21.50Q239.31 22.68 239.70 24.49Q239.92 25.61 239.92 28.54L239.92 34.40Q239.92 40.53 240.20 42.15Q240.48 43.77 241.31 45.26L236.72 45.26Q236.04 43.90 235.84 42.07M235.47 32.25Q233.08 33.23 228.30 33.91Q225.59 34.30 224.46 34.79Q223.34 35.28 222.73 36.22Q222.12 37.16 222.12 38.31Q222.12 40.06 223.45 41.24Q224.78 42.41 227.34 42.41Q229.88 42.41 231.86 41.30Q233.84 40.19 234.77 38.26Q235.47 36.77 235.47 33.86L235.47 32.25ZM253.93 45.26L244.07 19.34L248.71 19.34L254.27 34.86Q255.18 37.38 255.93 40.09Q256.52 38.04 257.57 35.16L263.33 19.34L267.85 19.34L258.03 45.26L253.93 45.26ZM288.65 42.07Q286.21 44.14 283.95 45.00Q281.69 45.85 279.10 45.85Q274.83 45.85 272.53 43.76Q270.24 41.67 270.24 38.43Q270.24 36.52 271.11 34.95Q271.97 33.37 273.38 32.42Q274.78 31.47 276.54 30.98Q277.83 30.64 280.44 30.32Q285.77 29.69 288.28 28.81Q288.31 27.91 288.31 27.66Q288.31 24.98 287.06 23.88Q285.38 22.39 282.06 22.39Q278.96 22.39 277.48 23.47Q276.00 24.56 275.29 27.32L271.00 26.73Q271.58 23.97 272.92 22.28Q274.27 20.58 276.81 19.67Q279.35 18.75 282.69 18.75Q286.01 18.75 288.09 19.53Q290.16 20.31 291.14 21.50Q292.11 22.68 292.50 24.49Q292.72 25.61 292.72 28.54L292.72 34.40Q292.72 40.53 293.01 42.15Q293.29 43.77 294.12 45.26L289.53 45.26Q288.84 43.90 288.65 42.07M288.28 32.25Q285.89 33.23 281.10 33.91Q278.39 34.30 277.27 34.79Q276.15 35.28 275.54 36.22Q274.93 37.16 274.93 38.31Q274.93 40.06 276.26 41.24Q277.59 42.41 280.15 42.41Q282.69 42.41 284.67 41.30Q286.65 40.19 287.57 38.26Q288.28 36.77 288.28 33.86L288.28 32.25ZM299.56 14.53L299.56 9.47L303.96 9.47L303.96 14.53L299.56 14.53M299.56 45.26L299.56 19.34L303.96 19.34L303.96 45.26L299.56 45.26ZM310.55 45.26L310.55 9.47L314.94 9.47L314.94 45.26L310.55 45.26Z"/></g></g></g></svg>